<mxfile host="app.diagrams.net" modified="2022-11-30T08:58:11.186Z" agent="5.0 (Windows NT 10.0; Win64; x64) AppleWebKit/537.36 (KHTML, like Gecko) Chrome/106.0.0.0 Safari/537.36 OPR/92.0.0.0" etag="L9plGDsqbehzg2zb21Uk" version="20.6.0" type="github" pages="2">
  <diagram id="9EI7xeKPEm430Irxm6AQ" name="Page-1">
    <mxGraphModel dx="1726" dy="994" grid="1" gridSize="10" guides="1" tooltips="1" connect="1" arrows="1" fold="1" page="1" pageScale="1" pageWidth="1169" pageHeight="827" math="0" shadow="0">
      <root>
        <mxCell id="0" />
        <mxCell id="1" parent="0" />
        <mxCell id="NRLixDU5rPbuY8DBxhij-1" value="" style="shape=cylinder3;whiteSpace=wrap;html=1;boundedLbl=1;backgroundOutline=1;size=15;" parent="1" vertex="1">
          <mxGeometry x="777" y="320" width="70" height="130" as="geometry" />
        </mxCell>
        <mxCell id="NRLixDU5rPbuY8DBxhij-2" value="Glados" style="text;html=1;strokeColor=none;fillColor=none;align=center;verticalAlign=middle;whiteSpace=wrap;rounded=0;" parent="1" vertex="1">
          <mxGeometry x="782" y="375" width="60" height="30" as="geometry" />
        </mxCell>
        <mxCell id="NRLixDU5rPbuY8DBxhij-16" value="" style="rounded=1;whiteSpace=wrap;html=1;" parent="1" vertex="1">
          <mxGeometry x="200" y="15" width="110" height="60" as="geometry" />
        </mxCell>
        <mxCell id="NRLixDU5rPbuY8DBxhij-17" value="" style="rounded=1;whiteSpace=wrap;html=1;" parent="1" vertex="1">
          <mxGeometry x="260" y="115" width="90" height="60" as="geometry" />
        </mxCell>
        <mxCell id="NRLixDU5rPbuY8DBxhij-28" style="edgeStyle=orthogonalEdgeStyle;rounded=0;orthogonalLoop=1;jettySize=auto;html=1;exitX=0;exitY=0.5;exitDx=0;exitDy=0;" parent="1" source="NRLixDU5rPbuY8DBxhij-18" target="NRLixDU5rPbuY8DBxhij-1" edge="1">
          <mxGeometry relative="1" as="geometry" />
        </mxCell>
        <mxCell id="NRLixDU5rPbuY8DBxhij-18" value="" style="rounded=1;whiteSpace=wrap;html=1;" parent="1" vertex="1">
          <mxGeometry x="850" y="15" width="130" height="60" as="geometry" />
        </mxCell>
        <mxCell id="NRLixDU5rPbuY8DBxhij-27" style="edgeStyle=orthogonalEdgeStyle;rounded=0;orthogonalLoop=1;jettySize=auto;html=1;exitX=0;exitY=0.5;exitDx=0;exitDy=0;" parent="1" source="NRLixDU5rPbuY8DBxhij-19" target="NRLixDU5rPbuY8DBxhij-1" edge="1">
          <mxGeometry relative="1" as="geometry" />
        </mxCell>
        <mxCell id="NRLixDU5rPbuY8DBxhij-19" value="" style="rounded=1;whiteSpace=wrap;html=1;" parent="1" vertex="1">
          <mxGeometry x="860" y="115" width="100" height="60" as="geometry" />
        </mxCell>
        <mxCell id="NRLixDU5rPbuY8DBxhij-25" style="edgeStyle=orthogonalEdgeStyle;rounded=0;orthogonalLoop=1;jettySize=auto;html=1;" parent="1" source="NRLixDU5rPbuY8DBxhij-20" target="NRLixDU5rPbuY8DBxhij-1" edge="1">
          <mxGeometry relative="1" as="geometry" />
        </mxCell>
        <mxCell id="NRLixDU5rPbuY8DBxhij-20" value="Camera" style="text;html=1;strokeColor=none;fillColor=none;align=center;verticalAlign=middle;whiteSpace=wrap;rounded=0;" parent="1" vertex="1">
          <mxGeometry x="225" y="30" width="60" height="30" as="geometry" />
        </mxCell>
        <mxCell id="NRLixDU5rPbuY8DBxhij-26" style="edgeStyle=orthogonalEdgeStyle;rounded=0;orthogonalLoop=1;jettySize=auto;html=1;" parent="1" source="NRLixDU5rPbuY8DBxhij-22" target="NRLixDU5rPbuY8DBxhij-1" edge="1">
          <mxGeometry relative="1" as="geometry" />
        </mxCell>
        <mxCell id="NRLixDU5rPbuY8DBxhij-22" value="Frigo" style="text;html=1;strokeColor=none;fillColor=none;align=center;verticalAlign=middle;whiteSpace=wrap;rounded=0;" parent="1" vertex="1">
          <mxGeometry x="275" y="130" width="60" height="30" as="geometry" />
        </mxCell>
        <mxCell id="NRLixDU5rPbuY8DBxhij-23" value="Television" style="text;html=1;strokeColor=none;fillColor=none;align=center;verticalAlign=middle;whiteSpace=wrap;rounded=0;" parent="1" vertex="1">
          <mxGeometry x="880" y="130" width="60" height="30" as="geometry" />
        </mxCell>
        <mxCell id="NRLixDU5rPbuY8DBxhij-24" value="Camera" style="text;html=1;strokeColor=none;fillColor=none;align=center;verticalAlign=middle;whiteSpace=wrap;rounded=0;" parent="1" vertex="1">
          <mxGeometry x="885" y="30" width="60" height="30" as="geometry" />
        </mxCell>
        <mxCell id="NRLixDU5rPbuY8DBxhij-29" value="Connexion Wifi" style="text;html=1;strokeColor=none;fillColor=none;align=center;verticalAlign=middle;whiteSpace=wrap;rounded=0;" parent="1" vertex="1">
          <mxGeometry x="539" width="60" height="30" as="geometry" />
        </mxCell>
        <mxCell id="NRLixDU5rPbuY8DBxhij-53" style="edgeStyle=orthogonalEdgeStyle;rounded=0;orthogonalLoop=1;jettySize=auto;html=1;exitX=0.8;exitY=0.8;exitDx=0;exitDy=0;exitPerimeter=0;entryX=0.5;entryY=0;entryDx=0;entryDy=0;startArrow=none;" parent="1" source="NRLixDU5rPbuY8DBxhij-57" target="NRLixDU5rPbuY8DBxhij-52" edge="1">
          <mxGeometry relative="1" as="geometry" />
        </mxCell>
        <mxCell id="NRLixDU5rPbuY8DBxhij-54" style="edgeStyle=orthogonalEdgeStyle;rounded=0;orthogonalLoop=1;jettySize=auto;html=1;exitX=0.55;exitY=0.95;exitDx=0;exitDy=0;exitPerimeter=0;entryX=0.564;entryY=0.034;entryDx=0;entryDy=0;entryPerimeter=0;" parent="1" source="NRLixDU5rPbuY8DBxhij-30" target="NRLixDU5rPbuY8DBxhij-50" edge="1">
          <mxGeometry relative="1" as="geometry" />
        </mxCell>
        <mxCell id="NRLixDU5rPbuY8DBxhij-30" value="" style="ellipse;shape=cloud;whiteSpace=wrap;html=1;" parent="1" vertex="1">
          <mxGeometry x="10" y="405" width="180" height="120" as="geometry" />
        </mxCell>
        <mxCell id="NRLixDU5rPbuY8DBxhij-31" value="IA reconnaissance vocal" style="text;html=1;strokeColor=none;fillColor=none;align=center;verticalAlign=middle;whiteSpace=wrap;rounded=0;" parent="1" vertex="1">
          <mxGeometry x="70" y="450" width="60" height="30" as="geometry" />
        </mxCell>
        <mxCell id="NRLixDU5rPbuY8DBxhij-37" value="" style="endArrow=none;dashed=1;html=1;rounded=0;exitX=1;exitY=0.5;exitDx=0;exitDy=0;exitPerimeter=0;entryX=0.5;entryY=0.5;entryDx=0;entryDy=0;entryPerimeter=0;startArrow=none;" parent="1" source="NRLixDU5rPbuY8DBxhij-41" target="NRLixDU5rPbuY8DBxhij-38" edge="1">
          <mxGeometry width="50" height="50" relative="1" as="geometry">
            <mxPoint x="450" y="380" as="sourcePoint" />
            <mxPoint x="620" y="380" as="targetPoint" />
          </mxGeometry>
        </mxCell>
        <mxCell id="NRLixDU5rPbuY8DBxhij-38" value="Utilisateur a distance" style="shape=umlActor;verticalLabelPosition=bottom;verticalAlign=top;html=1;outlineConnect=0;" parent="1" vertex="1">
          <mxGeometry x="1090" y="355" width="30" height="60" as="geometry" />
        </mxCell>
        <mxCell id="NRLixDU5rPbuY8DBxhij-42" value="" style="image;html=1;image=img/lib/clip_art/networking/Firewall_02_128x128.png" parent="1" vertex="1">
          <mxGeometry x="585" y="355" width="80" height="80" as="geometry" />
        </mxCell>
        <mxCell id="NRLixDU5rPbuY8DBxhij-43" value="" style="sketch=0;points=[[0.015,0.015,0],[0.985,0.015,0],[0.985,0.985,0],[0.015,0.985,0],[0.25,0,0],[0.5,0,0],[0.75,0,0],[1,0.25,0],[1,0.5,0],[1,0.75,0],[0.75,1,0],[0.5,1,0],[0.25,1,0],[0,0.75,0],[0,0.5,0],[0,0.25,0]];verticalLabelPosition=bottom;html=1;verticalAlign=top;aspect=fixed;align=center;pointerEvents=1;shape=mxgraph.cisco19.rect;prIcon=ips_ids;fillColor=#FAFAFA;strokeColor=#005073;" parent="1" vertex="1">
          <mxGeometry x="410" y="385" width="64" height="50" as="geometry" />
        </mxCell>
        <mxCell id="NRLixDU5rPbuY8DBxhij-44" value="" style="endArrow=classic;html=1;rounded=0;exitX=0;exitY=1;exitDx=0;exitDy=-15;exitPerimeter=0;entryX=1;entryY=1;entryDx=0;entryDy=0;" parent="1" source="NRLixDU5rPbuY8DBxhij-1" target="NRLixDU5rPbuY8DBxhij-42" edge="1">
          <mxGeometry width="50" height="50" relative="1" as="geometry">
            <mxPoint x="343" y="420" as="sourcePoint" />
            <mxPoint x="393" y="370" as="targetPoint" />
          </mxGeometry>
        </mxCell>
        <mxCell id="NRLixDU5rPbuY8DBxhij-45" value="" style="endArrow=classic;html=1;rounded=0;exitX=0;exitY=1;exitDx=0;exitDy=0;entryX=0.985;entryY=0.985;entryDx=0;entryDy=0;entryPerimeter=0;" parent="1" source="NRLixDU5rPbuY8DBxhij-42" target="NRLixDU5rPbuY8DBxhij-43" edge="1">
          <mxGeometry width="50" height="50" relative="1" as="geometry">
            <mxPoint x="343" y="315" as="sourcePoint" />
            <mxPoint x="393" y="265" as="targetPoint" />
          </mxGeometry>
        </mxCell>
        <mxCell id="NRLixDU5rPbuY8DBxhij-46" value="" style="endArrow=classic;html=1;rounded=0;exitX=0.25;exitY=1;exitDx=0;exitDy=0;exitPerimeter=0;entryX=0.855;entryY=0.855;entryDx=0;entryDy=0;entryPerimeter=0;" parent="1" source="NRLixDU5rPbuY8DBxhij-43" target="iedOWlliUIl-HyxWPMk2-2" edge="1">
          <mxGeometry width="50" height="50" relative="1" as="geometry">
            <mxPoint x="510" y="315" as="sourcePoint" />
            <mxPoint x="560" y="265" as="targetPoint" />
          </mxGeometry>
        </mxCell>
        <mxCell id="NRLixDU5rPbuY8DBxhij-41" value="Connexion intÃ©grer a l&#39;application" style="text;html=1;strokeColor=none;fillColor=none;align=center;verticalAlign=middle;whiteSpace=wrap;rounded=0;" parent="1" vertex="1">
          <mxGeometry x="927" y="365" width="75" height="40" as="geometry" />
        </mxCell>
        <mxCell id="NRLixDU5rPbuY8DBxhij-47" value="" style="endArrow=none;dashed=1;html=1;rounded=0;exitX=1;exitY=0.5;exitDx=0;exitDy=0;exitPerimeter=0;entryX=0.5;entryY=0.5;entryDx=0;entryDy=0;entryPerimeter=0;" parent="1" source="NRLixDU5rPbuY8DBxhij-1" target="NRLixDU5rPbuY8DBxhij-41" edge="1">
          <mxGeometry width="50" height="50" relative="1" as="geometry">
            <mxPoint x="847" y="385" as="sourcePoint" />
            <mxPoint x="1102" y="385" as="targetPoint" />
          </mxGeometry>
        </mxCell>
        <mxCell id="NRLixDU5rPbuY8DBxhij-50" value="" style="sketch=0;aspect=fixed;html=1;points=[];align=center;image;fontSize=12;image=img/lib/mscae/Cache_Redis_Product.svg;" parent="1" vertex="1">
          <mxGeometry x="43" y="645.5" width="50" height="42" as="geometry" />
        </mxCell>
        <mxCell id="NRLixDU5rPbuY8DBxhij-52" value="" style="shape=datastore;whiteSpace=wrap;html=1;" parent="1" vertex="1">
          <mxGeometry x="187" y="655.5" width="40" height="70" as="geometry" />
        </mxCell>
        <mxCell id="NRLixDU5rPbuY8DBxhij-55" value="If miss data in redis cache" style="text;html=1;strokeColor=none;fillColor=none;align=center;verticalAlign=middle;whiteSpace=wrap;rounded=0;" parent="1" vertex="1">
          <mxGeometry x="200" y="555.5" width="100" height="30" as="geometry" />
        </mxCell>
        <mxCell id="NRLixDU5rPbuY8DBxhij-56" value="&lt;font color=&quot;#000000&quot;&gt;1&lt;/font&gt;" style="text;html=1;strokeColor=#666666;fillColor=#f5f5f5;align=center;verticalAlign=middle;whiteSpace=wrap;rounded=0;fontColor=#333333;" parent="1" vertex="1">
          <mxGeometry x="43" y="575.5" width="60" height="30" as="geometry" />
        </mxCell>
        <mxCell id="NRLixDU5rPbuY8DBxhij-73" style="edgeStyle=orthogonalEdgeStyle;rounded=0;orthogonalLoop=1;jettySize=auto;html=1;entryX=0.875;entryY=0.5;entryDx=0;entryDy=0;entryPerimeter=0;fontColor=#000000;" parent="1" source="NRLixDU5rPbuY8DBxhij-67" target="NRLixDU5rPbuY8DBxhij-30" edge="1">
          <mxGeometry relative="1" as="geometry">
            <Array as="points">
              <mxPoint x="350" y="465" />
            </Array>
          </mxGeometry>
        </mxCell>
        <mxCell id="NRLixDU5rPbuY8DBxhij-67" value="" style="sketch=0;aspect=fixed;html=1;points=[];align=center;image;fontSize=12;image=img/lib/mscae/Docker.svg;fontColor=#000000;" parent="1" vertex="1">
          <mxGeometry x="325" y="565" width="50" height="41" as="geometry" />
        </mxCell>
        <mxCell id="NRLixDU5rPbuY8DBxhij-76" style="edgeStyle=orthogonalEdgeStyle;rounded=0;orthogonalLoop=1;jettySize=auto;html=1;exitX=0;exitY=0.5;exitDx=0;exitDy=0;entryX=0.9;entryY=0.496;entryDx=0;entryDy=0;entryPerimeter=0;fontColor=#000000;" parent="1" source="NRLixDU5rPbuY8DBxhij-74" target="NRLixDU5rPbuY8DBxhij-67" edge="1">
          <mxGeometry relative="1" as="geometry" />
        </mxCell>
        <mxCell id="NRLixDU5rPbuY8DBxhij-74" value="" style="rounded=0;whiteSpace=wrap;html=1;fontColor=#000000;" parent="1" vertex="1">
          <mxGeometry x="490" y="555.5" width="120" height="60" as="geometry" />
        </mxCell>
        <mxCell id="NRLixDU5rPbuY8DBxhij-75" value="Ansible" style="text;html=1;strokeColor=none;fillColor=none;align=center;verticalAlign=middle;whiteSpace=wrap;rounded=0;fontColor=#000000;" parent="1" vertex="1">
          <mxGeometry x="520" y="570.5" width="60" height="30" as="geometry" />
        </mxCell>
        <mxCell id="NRLixDU5rPbuY8DBxhij-57" value="2" style="text;html=1;strokeColor=#666666;fillColor=#f5f5f5;align=center;verticalAlign=middle;whiteSpace=wrap;rounded=0;fontColor=#333333;" parent="1" vertex="1">
          <mxGeometry x="127" y="555.5" width="60" height="30" as="geometry" />
        </mxCell>
        <mxCell id="iedOWlliUIl-HyxWPMk2-1" value="" style="edgeStyle=orthogonalEdgeStyle;rounded=0;orthogonalLoop=1;jettySize=auto;html=1;exitX=0.8;exitY=0.8;exitDx=0;exitDy=0;exitPerimeter=0;entryX=0.5;entryY=0;entryDx=0;entryDy=0;endArrow=none;" edge="1" parent="1" source="NRLixDU5rPbuY8DBxhij-30" target="NRLixDU5rPbuY8DBxhij-57">
          <mxGeometry relative="1" as="geometry">
            <mxPoint x="154.00000000000023" y="501" as="sourcePoint" />
            <mxPoint x="207" y="655.5" as="targetPoint" />
          </mxGeometry>
        </mxCell>
        <mxCell id="iedOWlliUIl-HyxWPMk2-6" style="edgeStyle=orthogonalEdgeStyle;rounded=0;orthogonalLoop=1;jettySize=auto;html=1;exitX=0.145;exitY=0.855;exitDx=0;exitDy=0;exitPerimeter=0;entryX=0.88;entryY=0.25;entryDx=0;entryDy=0;entryPerimeter=0;" edge="1" parent="1" source="iedOWlliUIl-HyxWPMk2-2" target="NRLixDU5rPbuY8DBxhij-30">
          <mxGeometry relative="1" as="geometry" />
        </mxCell>
        <mxCell id="iedOWlliUIl-HyxWPMk2-7" style="edgeStyle=orthogonalEdgeStyle;rounded=0;orthogonalLoop=1;jettySize=auto;html=1;exitX=0.5;exitY=0;exitDx=0;exitDy=0;exitPerimeter=0;entryX=0.875;entryY=0.5;entryDx=0;entryDy=0;entryPerimeter=0;" edge="1" parent="1" source="iedOWlliUIl-HyxWPMk2-2" target="iedOWlliUIl-HyxWPMk2-3">
          <mxGeometry relative="1" as="geometry">
            <Array as="points">
              <mxPoint x="303" y="250" />
            </Array>
          </mxGeometry>
        </mxCell>
        <mxCell id="iedOWlliUIl-HyxWPMk2-2" value="" style="outlineConnect=0;dashed=0;verticalLabelPosition=bottom;verticalAlign=top;align=center;html=1;shape=mxgraph.aws3.classic_load_balancer;fillColor=#F58534;gradientColor=none;" vertex="1" parent="1">
          <mxGeometry x="271" y="377" width="64" height="66" as="geometry" />
        </mxCell>
        <mxCell id="iedOWlliUIl-HyxWPMk2-3" value="" style="ellipse;shape=cloud;whiteSpace=wrap;html=1;" vertex="1" parent="1">
          <mxGeometry x="10" y="190" width="180" height="120" as="geometry" />
        </mxCell>
        <mxCell id="iedOWlliUIl-HyxWPMk2-4" value="IA reconnaissance vocal" style="text;html=1;strokeColor=none;fillColor=none;align=center;verticalAlign=middle;whiteSpace=wrap;rounded=0;" vertex="1" parent="1">
          <mxGeometry x="70" y="235" width="60" height="30" as="geometry" />
        </mxCell>
      </root>
    </mxGraphModel>
  </diagram>
  <diagram id="2LuD24mMG1clWmIODWen" name="Page-2">
    <mxGraphModel dx="1973" dy="1136" grid="1" gridSize="10" guides="1" tooltips="1" connect="1" arrows="1" fold="1" page="1" pageScale="1" pageWidth="1169" pageHeight="827" math="0" shadow="0">
      <root>
        <mxCell id="0" />
        <mxCell id="1" parent="0" />
      </root>
    </mxGraphModel>
  </diagram>
</mxfile>
